<?xml version="1.0" encoding="utf-8"?>
<svg width="423.9844px" height="200.99998px" viewBox="0 0 423.9844 200.99998" version="1.1" xmlns:xlink="http://www.w3.org/1999/xlink" xmlns="http://www.w3.org/2000/svg">
  <defs>
    <path d="M0 0L423.984 0L423.984 115.156L0 115.156L0 0Z" id="path_1" />
    <path d="M0 0L280.039 0L280.039 78.5156L0 78.5156L0 0Z" id="path_2" />
    <path d="M0 0L180.586 0L180.586 65.4297L0 65.4297L0 0Z" id="path_3" />
    <clipPath id="clip_1">
      <use xlink:href="#path_1" transform="translate(0, 3.160427)" />
    </clipPath>
    <clipPath id="clip_2">
      <use xlink:href="#path_2" transform="translate(0, -12.168167)" />
    </clipPath>
    <clipPath id="clip_3">
      <use xlink:href="#path_3" transform="translate(0, 2.0898438)" />
    </clipPath>
  </defs>
  <g id="Group">
    <g id="Psalms-23" clip-path="url(#clip_1)" transform="translate(0 48.659885)">
      <g fill="#273348" stroke="none" id="Psalms-23">
        <path d="M57.6035 28.8527Q57.6035 38.5383 49.7021 44.1457Q42.1576 49.3963 30.0762 49.3963Q29.1076 49.3963 26.8392 49.2434Q24.5707 49.0904 24.3158 49.0904Q23.8061 49.0904 23.8061 50.6707L23.8061 68.9203Q23.8061 71.3162 24.8001 72.0299Q25.7941 72.7436 30.1781 73.5082Q32.9818 74.018 32.9818 75.4963Q32.9818 76.7707 32.523 77.0766Q32.0643 77.3824 29.9742 77.2805Q20.7475 76.8727 9.83848 77.6883Q7.64648 77.8412 7.64648 75.9041Q7.64648 74.5787 9.83848 74.3748Q14.8342 73.865 14.8342 68.9203L14.8342 20.0848Q14.8342 15.242 9.17578 14.1205Q6.37207 13.5598 6.37207 12.3363Q6.37207 10.7561 7.13672 10.4502Q7.64648 10.2463 9.48164 10.5521Q11.8266 11.0109 16.2615 11.0109Q18.5045 11.0109 24.3413 10.7815Q30.1781 10.5521 33.7465 10.5521Q44.6555 10.5521 50.9766 15.14Q57.6035 19.9318 57.6035 28.8527ZM47.7141 29.9742Q47.7141 21.0533 43.534 17.485Q39.6088 14.1205 30.2801 14.1205Q26.4568 14.1205 25.1314 15.1655Q23.8061 16.2106 23.8061 19.677L23.8061 44.0947Q23.8061 45.5221 30.5859 45.5221Q38.4873 45.5221 43.1007 41.4949Q47.7141 37.4678 47.7141 29.9742ZM98.3848 66.3205Q98.3848 71.724 94.2302 74.9101Q90.0756 78.0961 82.8879 78.0961Q78.0961 78.0961 73.3043 77.0766Q69.1752 76.159 68.5125 75.3943Q68.1047 74.6807 68.1047 68.4106Q68.1047 65.7088 69.3281 65.6068Q70.5516 65.4539 71.4182 66.9322Q75.2414 73.6102 83.7545 73.6102Q90.9422 73.6102 90.9422 68.6145Q90.9422 66.4225 89.3109 64.9441Q87.5268 63.2619 82.3781 61.0189Q74.9355 57.7055 72.4377 55.2076Q69.7359 52.5568 69.7359 48.0709Q69.7359 42.5654 73.967 39.5068Q77.8922 36.5502 84.4682 36.5502Q88.5973 36.5502 92.0127 37.2129Q95.683 37.8756 95.8359 38.8441Q96.2438 41.6988 97.5182 47.1023Q97.6711 47.765 96.0908 48.1729Q94.4086 48.5297 93.8479 47.6121Q89.8207 41.0361 83.6525 41.0361Q76.6688 41.0361 76.6688 45.5221Q76.6688 48.0199 78.5549 49.4982Q80.2371 50.7727 86.4563 53.4744Q92.9813 56.2781 95.3262 58.5211Q98.3848 61.4268 98.3848 66.3205ZM148.597 72.3867Q148.597 73.4572 144.697 75.6237Q140.797 77.7902 138.452 77.7902Q136.464 77.7902 134.935 75.8531Q133.406 73.916 132.794 73.916Q132.335 73.916 127.951 76.0061Q123.567 78.0961 119.132 78.0961Q114.952 78.0961 112.148 75.6492Q109.09 72.9475 109.09 68.3086Q109.09 59.4897 129.277 55.6664Q132.743 55.0037 132.794 52.8627L132.896 49.6002Q133.202 41.24 125.504 41.24Q123.312 41.24 121.35 45.1652Q119.387 49.0904 115.717 49.3963Q111.537 49.8041 111.537 45.8789Q111.537 43.432 117.756 40.1695Q124.281 36.7541 130.296 36.7541Q140.644 36.7541 140.542 46.5926L140.338 67.5949Q140.288 70.9084 143.142 70.9084Q143.703 70.9084 145.283 70.6535Q146.863 70.3986 147.118 70.3986Q148.597 70.3986 148.597 72.3867ZM132.896 60.7641Q132.947 59.4897 132.31 59.0818Q131.672 58.674 130.296 58.9289Q118.011 61.1209 118.011 66.9322Q118.011 72.7945 124.383 72.7945Q126.932 72.7945 129.633 71.826Q132.794 70.7045 132.794 69.1242L132.896 60.7641ZM178.673 75.8022Q178.673 77.8412 176.379 77.5863Q169.344 76.9236 158.945 77.7902Q156.855 77.9941 156.371 77.6883Q155.886 77.3824 155.886 76.0061Q155.886 74.7826 158.665 73.9415Q161.443 73.1004 161.443 68.9203L161.443 22.7865Q161.443 18.6574 160.245 16.7203Q159.047 14.7832 156.039 13.7127Q154.459 13.152 154.459 12.1324Q154.459 10.6031 156.753 9.83848Q160.219 8.717 163.941 6.37207Q166.999 4.53692 167.815 4.53692Q169.701 4.53692 169.701 7.13672Q169.701 6.93282 169.497 12.2344Q169.344 17.2811 169.395 22.1748L169.599 67.6969Q169.599 70.8064 171.128 72.2083Q172.658 73.6102 176.379 74.0689Q178.673 74.3238 178.673 75.8022ZM267.627 75.9041Q267.627 77.5863 266.047 77.4844Q255.647 76.7197 246.676 77.4844Q244.688 77.6373 244.688 75.7002Q244.688 74.1709 247.389 74.0689Q250.805 73.865 250.805 68.5125L250.805 54.9527Q250.805 43.534 241.527 43.534Q236.633 43.534 232.555 45.3182Q228.834 46.8984 228.783 48.4787L228.579 68.7164Q228.579 71.877 229.344 72.8965Q229.904 73.6102 231.841 73.916Q236.327 74.6807 236.327 75.8022Q236.327 76.7707 236.072 77.1275Q235.767 77.6373 234.237 77.5863Q228.426 77.3824 217.313 77.7902Q215.733 77.8412 215.274 77.5354Q214.815 77.2295 214.815 76.108Q214.815 74.7826 217.721 74.4768Q220.881 74.1199 220.881 68.7164L220.881 54.8508Q220.881 49.2434 218.333 46.1848Q216.09 43.432 212.623 43.432Q207.526 43.432 203.447 45.4966Q199.369 47.5611 199.369 49.9061L199.369 68.5125Q199.369 71.673 201.001 72.8965Q202.479 74.018 206.353 74.2729Q208.443 74.3748 208.443 75.7002Q208.443 77.1785 206.761 77.1785Q194.017 77.1785 188.307 77.8922Q186.37 78.1471 185.81 77.8922Q185.351 77.6373 185.351 76.6688Q185.351 75.3943 189.123 74.4768Q191.417 73.865 191.417 68.5125L191.417 52.8627Q191.417 46.8984 188.205 45.9809Q185.504 45.2162 184.917 44.8594Q184.331 44.5025 184.331 43.6869Q184.331 42.7693 189.633 39.8127Q195.24 36.6521 196.515 36.6521Q197.585 36.6521 198.324 39.7362Q199.063 42.8203 199.471 42.8203Q200.032 42.8203 202.581 41.24Q205.741 39.252 208.29 38.2834Q212.47 36.6521 216.905 36.6521Q220.474 36.6521 223.124 38.1814Q224.96 39.201 226.438 40.9852Q227.661 42.5145 227.661 42.5145Q227.661 42.5145 230.312 40.9852Q233.422 39.201 236.378 38.1814Q240.711 36.6521 244.789 36.6521Q258.757 36.6521 258.757 51.9961L258.757 68.5125Q258.757 71.4182 260.133 72.6416Q261.357 73.6611 264.925 74.3748Q267.627 74.8846 267.627 75.9041ZM304.534 66.3205Q304.534 71.724 300.379 74.9101Q296.225 78.0961 289.037 78.0961Q284.245 78.0961 279.454 77.0766Q275.324 76.159 274.662 75.3943Q274.254 74.6807 274.254 68.4106Q274.254 65.7088 275.477 65.6068Q276.701 65.4539 277.567 66.9322Q281.391 73.6102 289.904 73.6102Q297.091 73.6102 297.091 68.6145Q297.091 66.4225 295.46 64.9441Q293.676 63.2619 288.527 61.0189Q281.085 57.7055 278.587 55.2076Q275.885 52.5568 275.885 48.0709Q275.885 42.5654 280.116 39.5068Q284.041 36.5502 290.617 36.5502Q294.746 36.5502 298.162 37.2129Q301.832 37.8756 301.985 38.8441Q302.393 41.6988 303.667 47.1023Q303.82 47.765 302.24 48.1729Q300.558 48.5297 299.997 47.6121Q295.97 41.0361 289.802 41.0361Q282.818 41.0361 282.818 45.5221Q282.818 48.0199 284.704 49.4982Q286.386 50.7727 292.605 53.4744Q299.13 56.2781 301.475 58.5211Q304.534 61.4268 304.534 66.3205ZM376.768 70.3986Q374.27 74.3748 372.282 81.7664Q371.925 83.1428 370.192 82.684Q368.713 82.3781 369.223 80.2371Q369.733 78.0961 366.725 77.6883Q361.424 76.9746 341.288 76.9746Q340.625 76.9746 340.421 76.108Q340.167 75.2414 340.727 74.7826Q353.471 64.3834 358.11 58.3682Q362.137 53.2195 362.137 48.3768Q362.137 41.4949 354.95 41.4949Q350.056 41.4949 343.48 46.0828Q342.206 46.9494 341.033 45.5221Q340.421 44.7574 340.421 44.1457Q340.421 43.3301 341.492 42.3106Q348.425 35.5307 357.448 35.5307Q371.67 35.5307 371.67 46.2867Q371.67 51.1805 366.725 56.9918Q362.953 61.4777 353.675 69.1242Q352.911 69.7869 352.911 70.1947Q352.911 70.7045 354.44 70.7045Q364.279 70.7045 366.725 70.6025Q371.058 70.3986 374.27 68.9203Q375.238 68.4615 376.36 68.8184Q377.685 69.2772 376.768 70.3986ZM412.4 71.3162Q412.4 90.0756 383.14 94.8164Q381.305 95.1223 381.05 93.3381Q380.897 92.0637 381.509 91.6049Q381.967 91.1971 383.853 90.7383Q393.59 88.4953 398.178 84.876Q403.378 80.7469 403.378 73.8141Q403.378 69.2262 400.115 66.5754Q397.158 64.1285 392.672 64.1285Q390.175 64.1285 389.206 64.3324Q387.779 64.6383 387.218 62.8541Q386.708 61.2738 388.492 60.4582Q403.072 53.7293 403.072 46.4906Q403.072 40.1186 396.292 40.1186Q390.837 40.1186 385.842 42.9223Q384.312 43.7889 383.038 42.3106Q382.528 41.6988 382.528 41.291Q382.528 40.5773 384.006 39.5068Q390.582 34.5621 398.484 34.5621Q412.298 34.5621 412.298 44.8084Q412.298 53.3215 398.79 59.4387Q404.856 59.1838 408.628 62.3953Q412.4 65.6068 412.4 71.3162Z" />
      </g>
    </g>
    <g id="The" clip-path="url(#clip_2)" transform="translate(0 12.168167)">
      <g fill="#273348" stroke="none" id="The">
        <path d="M30.6241 4.81138Q30.9205 7.91255 30.2592 11.8346Q30.1908 12.2907 30.168 12.3363Q30.054 12.5415 29.6436 12.6099Q28.8683 12.7923 28.7314 11.9714Q28.1614 8.96148 26.9984 7.93535Q25.3794 6.54439 20.9785 6.54439Q18.8807 6.54439 18.7667 7.34248L16.0075 30.0768Q15.9619 30.4873 15.9619 30.8065Q15.9619 31.8326 16.6232 32.3115Q17.1705 32.7675 18.8123 33.178Q19.9752 33.4516 19.9752 33.8165Q19.9752 34.2953 19.7814 34.6031Q19.5875 34.911 18.4474 34.797Q12.7923 34.2725 9.05269 34.7514Q8.14058 34.8654 7.86694 34.7514Q7.66172 34.6374 7.61611 34.2041Q7.54771 33.4516 8.50542 33.2236Q10.4665 32.6991 11.2189 32.015Q12.0626 31.2169 12.2907 29.4383L14.9358 7.34248Q15.027 6.704 14.2517 6.56719Q14.1605 6.54439 12.9748 6.54439Q8.87026 6.54439 6.74961 8.04937Q5.19902 9.1667 3.64844 12.1539Q3.16958 13.0432 2.4855 12.7695Q1.82422 12.5871 2.09785 11.9258Q3.14678 9.32632 3.69404 4.971Q3.76245 4.44654 5.0394 4.53774Q9.62275 4.85698 15.4146 4.85698Q26.0635 4.85698 29.3243 4.40093Q30.5785 4.21851 30.6241 4.81138ZM51.4658 31.1485Q48.7066 34.797 46.472 34.797Q44.1689 34.797 44.1689 32.9272Q44.1689 32.2431 45.4002 26.9072Q46.4264 22.3923 46.4264 21.6854Q46.4264 19.3367 44.1233 19.3367Q42.3447 19.3367 40.4064 22.4151Q38.3542 25.6531 37.6017 30.168L37.0316 33.5428Q36.872 34.5233 34.8882 34.6602Q34.2269 34.7058 33.9191 34.5233Q33.6112 34.3409 33.6796 33.9077Q35.8231 18.6754 37.0772 6.36196Q37.2369 4.81138 36.6212 4.81138Q35.6863 4.81138 33.4744 5.42705Q33.2692 5.49546 33.0868 5.17622Q32.9043 4.85699 32.9043 4.53774Q32.9043 4.30972 33.0184 4.26411Q37.6929 2.02945 39.0383 2.02945Q40.9993 2.02945 40.9993 3.55723Q40.9993 3.73965 40.9537 3.94487Q39.882 10.5349 37.9209 22.0046Q37.8981 22.1871 38.0806 22.2327Q38.2858 22.2783 38.3998 22.0502Q39.7224 19.9296 41.501 18.3562Q43.8041 16.3496 45.8107 16.3496Q47.5893 16.3496 48.6838 17.3529Q49.8696 18.4474 49.8696 20.4084Q49.8696 21.2065 48.5242 26.9072Q47.4981 31.2397 47.4981 31.6274Q47.4981 32.2887 48.2506 32.2887Q48.8663 32.2887 50.7133 30.2364Q50.7817 30.1908 50.8273 30.1908Q51.0553 30.1908 51.2948 30.4531Q51.5342 30.7153 51.5342 30.9661Q51.5342 31.0801 51.4658 31.1485ZM69.1151 19.9068Q69.1151 22.3467 66.5156 24.0341Q64.0301 25.6531 57.9646 27.3405Q58.0558 29.94 59.1959 31.3082Q60.1992 32.5167 61.727 32.5167Q63.7336 32.5167 65.8543 31.0573Q66.6296 30.5329 67.0628 30.7381Q67.5417 31.0573 67.5417 31.5362Q67.5417 31.901 67.1997 32.1975Q63.802 34.8426 60.5185 34.8426Q54.4985 34.8426 54.4985 27.979Q54.4985 22.8483 57.4857 19.5419Q60.3132 16.3952 64.2581 16.3952Q69.1151 16.3952 69.1151 19.9068ZM65.4667 20.7505Q65.4667 19.656 64.794 18.9605Q64.1213 18.265 63.0496 18.265Q61.1797 18.265 59.7432 20.2716Q58.1926 22.4379 58.0102 25.8811Q62.3427 24.4901 63.9047 23.407Q65.4666 22.3239 65.4667 20.7505Z" />
      </g>
    </g>
    <g id="Project" clip-path="url(#clip_3)" transform="translate(180.58597 133.48047)">
      <g fill="#273348" stroke="none" id="Project">
        <path d="M32.4023 15.1465Q32.4023 21.6211 27.8613 25.0195Q23.9062 28.0078 16.9922 28.3887Q16.4355 28.418 16.4355 27.4805Q16.4355 26.7773 16.626 26.5723Q16.8164 26.3672 17.5781 26.3086Q27.0117 25.4883 27.0117 15.3223Q27.0117 11.3965 24.7852 9.69727Q22.7051 8.11523 17.9883 8.11523Q15.9961 8.11523 15.2637 8.84766Q14.6777 9.46289 14.4727 11.3086L10.9863 39.6094Q10.9277 40.1367 10.9277 40.4297Q10.9277 41.25 11.543 41.5723Q12.0703 41.8652 14.0918 42.2461Q15.5859 42.5391 15.4688 43.3887Q15.3809 44.209 14.9707 44.3848Q14.7656 44.4727 13.7402 44.4141Q8.81836 44.1797 2.75391 44.6484Q2.02148 44.707 1.77246 44.5313C1.60645 44.4141 1.5332 44.1113 1.55273 43.623Q1.69922 42.8613 2.92969 42.7441Q5.71289 42.4219 6.06445 39.6094L9.49219 11.543Q9.52148 11.2207 9.52148 10.957Q9.52148 8.70118 6.91406 8.11523Q5.36133 7.76367 5.44922 7.08984Q5.56641 6.26953 5.91797 6.06445Q6.26953 5.85938 7.32422 6.06445Q8.58398 6.32813 11.1035 6.32813Q12.3633 6.32813 15.6445 6.19629Q18.9258 6.06445 20.8887 6.06445Q26.0742 6.06445 29.2383 8.55469Q32.4023 11.0449 32.4023 15.1465ZM54.668 23.6426Q53.5547 27.2461 52.4414 27.2461Q52.0313 27.2461 50.5518 26.5869Q49.0723 25.9277 48.3398 25.9277Q46.9043 25.9277 44.8242 29.502Q42.5098 33.457 41.3965 38.7598L40.4883 43.0957Q40.2246 44.3848 37.9102 44.5313Q37.0605 44.5898 36.6797 44.3555Q36.2988 44.1211 36.416 43.5645Q37.3242 39.3164 38.2617 35.0977Q39.2871 29.8242 39.2871 26.4844Q39.2871 24.4922 38.4668 24.4922Q37.5293 24.4922 35.2148 27.1875Q35.1563 27.2461 35.0391 27.2461Q34.7754 27.2461 34.4824 26.8945Q34.1895 26.543 34.1895 26.2207Q34.1895 26.0742 34.248 25.9863Q37.8223 21.2402 40.8398 21.2402Q42.334 21.2402 42.8467 21.8408Q43.3594 22.4414 43.3594 23.9648Q43.3594 25.0195 42.7734 28.2715Q42.7148 28.5059 42.9492 28.5645Q43.1836 28.623 43.3594 28.3301Q45.0879 25.5469 47.2852 23.584Q50.1563 21.0059 52.7344 21.0059Q54.9316 21.0059 54.9316 22.2363Q54.9316 22.7344 54.668 23.6426ZM78.2227 30.3223Q78.2227 36.5332 74.5898 40.752Q71.0742 44.7656 66.2988 44.7656Q57.832 44.7656 57.832 35.1855Q57.832 28.9746 61.6406 24.873Q65.1855 21.0645 69.9023 21.0645Q73.9746 21.0645 76.1426 23.5547Q78.2227 25.957 78.2227 30.3223ZM73.5059 31.9336Q73.5059 23.7012 68.7598 23.7012Q65.9766 23.7012 64.2773 26.4844Q62.5781 29.2676 62.5781 34.043Q62.5781 42.1875 67.5586 42.1875Q70.2832 42.1875 71.8945 39.4043Q73.5059 36.6211 73.5059 31.9336ZM93.9551 10.5176Q93.9551 11.8945 92.915 13.0371Q91.875 14.1797 90.5859 14.1797Q89.1797 14.1797 88.2422 13.3594Q87.3047 12.5391 87.3047 11.2207Q87.3047 9.93164 88.3594 8.81836Q89.4141 7.70508 90.6445 7.70508Q93.9551 7.70508 93.9551 10.5176ZM91.9629 24.082Q91.9629 24.8438 91.5527 28.2715L89.3848 45.9082Q88.6523 51.9434 86.3086 54.9609Q84.6094 57.1289 80.0977 59.5898Q79.4238 59.9707 79.1309 59.4727Q78.7207 58.7402 79.4238 58.0957Q82.2949 55.5469 83.291 53.7598Q84.5508 51.6211 85.0195 47.7832L87.1875 30.3809Q87.5391 27.4805 87.5391 25.9863Q87.5391 24.4922 86.748 24.4922Q85.9277 24.4922 83.7012 27.1875Q83.6426 27.2461 83.5547 27.2754Q83.2617 27.2754 82.8955 26.8652Q82.5293 26.4551 82.5293 26.1328Q82.5293 26.0449 82.5586 25.9863Q86.25 21.2402 89.209 21.2402Q91.9629 21.2402 91.9629 24.082ZM116.689 25.5762Q116.689 28.7109 113.35 30.8789Q110.156 32.959 102.363 35.127Q102.48 38.4668 103.945 40.2246Q105.234 41.7773 107.197 41.7773Q109.775 41.7773 112.5 39.9023Q113.496 39.2285 114.053 39.4922Q114.668 39.9023 114.668 40.5176Q114.668 40.9863 114.229 41.3672Q109.863 44.7656 105.645 44.7656Q97.9102 44.7656 97.9102 35.9473Q97.9102 29.3555 101.748 25.1074Q105.381 21.0645 110.449 21.0645Q116.689 21.0645 116.689 25.5762ZM112.002 26.6602Q112.002 25.2539 111.138 24.3604Q110.273 23.4668 108.896 23.4668Q106.494 23.4668 104.648 26.0449Q102.656 28.8281 102.422 33.252Q107.988 31.4648 109.995 30.0732Q112.002 28.6816 112.002 26.6602ZM139.424 24.1992Q139.424 25.0195 138.105 26.543Q136.904 27.9199 136.113 27.9199Q135.41 27.9199 134.385 26.3086Q133.008 24.1406 131.631 24.1406Q128.848 24.1406 127.031 26.748Q125.068 29.5605 125.068 34.3359Q125.068 37.9102 126.563 39.9902Q127.939 41.8945 130.049 41.8945Q132.627 41.8945 134.971 39.9023Q135.996 39.082 136.494 39.4922Q137.139 40.0781 137.139 40.4883Q137.139 40.8105 136.729 41.2207Q132.803 45.0879 128.438 45.0879Q120.645 45.0879 120.645 36.5039Q120.645 29.707 124.629 25.3418Q128.203 21.3867 132.832 21.3867Q139.424 21.3867 139.424 24.1992ZM157.617 23.4082Q157.412 24.8145 154.922 24.6094L151.084 24.3164Q150.557 27.4219 149.736 31.4648Q148.359 38.291 148.359 40.2832Q148.359 41.7773 149.736 41.7773Q151.816 41.7773 155.039 38.7598Q155.068 38.7305 155.098 38.7305Q155.303 38.7305 155.669 39.1846Q156.035 39.6387 156.035 39.9316Q156.035 40.0488 155.977 40.1074Q151.699 44.707 147.656 44.707Q143.936 44.707 143.936 41.4258Q143.936 40.4297 144.961 34.5703Q145.459 31.6113 146.748 25.0195Q146.924 24.0527 145.781 24.0234L144.17 23.9648Q143.555 23.9355 143.701 23.1738Q143.877 22.0313 146.924 22.0313L147.158 22.0313Q147.773 19.4531 147.773 18.6621Q147.949 17.4609 148.828 16.2598Q149.707 15.0586 150.586 14.707Q151.611 14.3262 152.227 14.4141Q152.842 14.502 152.754 15Q152.402 17.3438 151.436 21.9727L156.943 21.9141Q157.588 21.9141 157.705 22.3535Q157.734 22.5586 157.617 23.4082Z" />
      </g>
    </g>
    <path d="M22.2461 159.648L159.648 159.648" id="Line" fill="none" fill-rule="evenodd" stroke="#273348" stroke-width="2" stroke-linecap="square" />
    <path d="M90.8985 36.3828L399.298 36.3828" id="Line-Copy" fill="none" fill-rule="evenodd" stroke="#273348" stroke-width="2" stroke-linecap="square" />
  </g>
</svg>